<?xml version="1.0" standalone="no"?>
<!DOCTYPE svg PUBLIC "-//W3C//DTD SVG 20010904//EN"
 "http://www.w3.org/TR/2001/REC-SVG-20010904/DTD/svg10.dtd">
<svg version="1.0" xmlns="http://www.w3.org/2000/svg"
 width="1191.000000pt" height="842.000000pt" viewBox="0 0 1191.000000 842.000000"
 preserveAspectRatio="xMidYMid meet">

<g transform="translate(0.000000,842.000000) scale(0.100000,-0.100000)"
fill="#000000" stroke="none">
<path d="M8247 6988 c-4 -62 -10 -190 -13 -284 l-7 -171 79 -6 c298 -25 661
-132 810 -239 l44 -31 0 -89 c0 -48 2 -88 5 -88 3 0 60 25 126 55 66 30 123
55 126 55 3 0 2 -92 -2 -205 l-7 -205 50 0 49 0 6 68 c4 37 7 108 7 158 0 50
3 125 6 167 l7 75 84 39 85 39 -721 387 c-396 213 -722 387 -725 387 -2 0 -6
-51 -9 -112z"/>
<path d="M7895 6430 c-210 -22 -434 -78 -530 -133 l-40 -23 -9 -202 c-4 -112
-5 -206 -2 -210 8 -7 1753 -78 1760 -71 2 2 7 97 10 211 l8 206 -67 38 c-134
74 -298 126 -530 165 -135 23 -463 34 -600 19z"/>
<path d="M9318 5424 c-46 -137 -84 -250 -84 -251 3 -4 379 -33 383 -29 5 4
-74 506 -80 512 -1 2 -32 6 -68 10 l-66 6 -85 -248z"/>
<path d="M7810 5494 c-234 -28 -326 -51 -458 -115 -86 -42 -117 -63 -181 -127
-103 -102 -161 -228 -161 -350 l0 -44 63 58 c109 101 229 169 395 223 214 70
501 100 773 82 90 -7 165 -13 167 -16 2 -2 -48 -66 -110 -142 -929 -1127
-1278 -1733 -1328 -2307 -17 -197 7 -389 65 -511 77 -162 198 -225 430 -224
97 0 99 1 75 17 -49 33 -122 107 -145 147 -13 22 -34 74 -47 115 -33 109 -31
295 6 475 34 163 133 463 221 665 221 509 623 1210 1037 1808 55 79 101 149
104 156 5 14 -147 44 -366 71 -113 15 -471 27 -540 19z"/>
<path d="M2860 3940 l0 -860 160 0 160 0 0 860 0 860 -160 0 -160 0 0 -860z"/>
<path d="M5775 4769 c-374 -35 -651 -252 -747 -585 -20 -70 -23 -101 -23 -264
0 -166 2 -193 23 -260 71 -225 206 -387 407 -486 154 -76 217 -88 455 -88 162
0 219 3 273 17 91 23 200 69 266 112 29 19 57 35 62 35 5 0 9 -31 9 -70 l0
-70 155 0 155 0 0 830 0 830 -155 0 -155 0 0 -78 c0 -43 -3 -81 -6 -84 -3 -3
-29 9 -57 28 -159 105 -416 157 -662 133z m312 -295 c202 -51 338 -186 389
-384 23 -88 23 -246 0 -325 -58 -198 -208 -339 -416 -391 -86 -22 -254 -22
-340 0 -302 76 -459 348 -395 683 44 234 213 395 454 433 72 11 234 3 308 -16z"/>
<path d="M660 4754 c-82 -17 -141 -39 -207 -75 -29 -16 -57 -29 -63 -29 -5 0
-10 20 -10 45 l0 45 -160 0 -160 0 0 -830 0 -830 159 0 160 0 4 513 c4 550 4
554 58 663 33 65 107 144 166 177 183 99 469 63 557 -70 54 -82 56 -109 56
-720 l0 -563 160 0 160 0 0 528 c0 403 3 540 14 583 47 200 236 313 496 296
202 -13 296 -95 320 -277 5 -41 10 -312 10 -602 l0 -528 160 0 160 0 0 564 c0
349 -4 594 -11 642 -32 234 -175 392 -414 459 -93 26 -387 32 -496 10 -116
-23 -211 -65 -297 -130 l-73 -56 -52 46 c-67 59 -192 121 -282 140 -89 19
-327 18 -415 -1z"/>
<path d="M3941 4755 c-93 -21 -178 -51 -240 -85 -30 -17 -58 -30 -63 -30 -4 0
-8 23 -8 50 l0 50 -160 0 -160 0 0 -830 0 -830 160 0 160 0 0 483 c0 375 3
497 14 548 37 172 152 297 326 351 63 19 96 23 210 23 155 0 244 -21 319 -75
46 -34 96 -105 111 -160 6 -21 10 -262 10 -602 l0 -568 166 0 165 0 -4 603
c-4 662 -2 643 -68 767 -67 127 -230 242 -414 291 -104 29 -422 37 -524 14z"/>
</g>
</svg>
